<?xml version="1.0" encoding="UTF-8" standalone="no"?>
<!DOCTYPE svg PUBLIC "-//W3C//DTD SVG 1.1//EN" "http://www.w3.org/Graphics/SVG/1.1/DTD/svg11.dtd">
<svg width="100%" height="100%" viewBox="0 0 2480 2529" version="1.1" xmlns="http://www.w3.org/2000/svg" xmlns:xlink="http://www.w3.org/1999/xlink" xml:space="preserve" xmlns:serif="http://www.serif.com/" style="fill-rule:evenodd;clip-rule:evenodd;stroke-linejoin:round;stroke-miterlimit:2;">
    <g id="Group_4">
        <g id="Object_10" transform="matrix(1.408456,0,0,1.408456,-506.547086,-83.597683)">
            <g transform="matrix(0.999941,-0.010821,0.010821,0.999941,-10.33,13.54)">
                <rect x="627.66" y="344.51" width="1224.97" height="1224.97" style="fill:rgb(136,147,147);"/>
            </g>
            <path d="M1836.05,348L1849.15,1552.9L644.25,1566L631.15,361.1L1836.05,348M1855.83,327.78L1835.83,328L630.93,341.1L610.93,341.32L611.15,361.32L624.25,1566.22L624.47,1586.22L644.47,1586L1849.37,1572.9L1869.37,1572.68L1869.15,1552.68L1856.05,347.78L1855.83,327.78Z" style="fill:white;fill-rule:nonzero;"/>
        </g>
        <g id="Object_11" transform="matrix(1.408456,0,0,1.408456,-506.547086,-83.597683)">
            <g transform="matrix(0.714351,-0.699788,0.699788,0.714351,-315.43,1141.34)">
                <rect x="627.66" y="344.51" width="1224.97" height="1224.97" style="fill:white;"/>
            </g>
            <path d="M1248.85,105L2092.15,965.7L1231.45,1809L388.15,948.3L1248.85,105M1249.14,76.71L1234.85,90.71L374.15,934.01L359.86,948.01L373.86,962.3L1217.16,1823L1231.16,1837.29L1245.45,1823.29L2106.15,979.99L2120.44,965.99L2106.44,951.7L1263.14,91L1249.14,76.71Z" style="fill:white;fill-rule:nonzero;"/>
        </g>
        <g transform="matrix(1.408456,0,0,1.408456,-506.547086,-83.597683)">
            <path d="M1156.62,932.1L1072.51,970.26C955.54,1038.73 874.2,1169.41 874.31,1305.65L1201.03,989.92L1152.13,1723.71L392.07,947.66L1247.76,105L2088.23,967.64L1330.05,1710.36L1276.66,989.96L1610.03,1305.67C1603.89,1152.37 1511.49,1012.93 1371.6,950.54L1325.58,932.16L1765.63,936.55C1768.24,926.28 1763.64,929.22 1760.04,926.39C1741.41,911.76 1707.25,892.33 1685.74,880.88C1582.12,825.74 1473.42,796.42 1356.68,829.79L1623.41,545.26C1472.5,545.34 1307.54,655.43 1255.43,797.48C1252.06,806.68 1245.74,846.91 1243.27,847.65C1233.28,850.62 1237.74,841.78 1236.55,836.77C1197.07,669.85 1028.3,548.42 858.77,545.26L1125.5,829.79C976.67,785.64 839.57,850.04 716.55,927.76L716.49,934.3C717.24,940.59 722.15,932.12 723.18,932.12L1156.62,932.12L1156.62,932.1Z" style="fill:rgb(0,42,69);fill-rule:nonzero;"/>
        </g>
    </g>
</svg>
