<?xml version="1.0" encoding="UTF-8"?>
<svg id="Layer_1" xmlns="http://www.w3.org/2000/svg" version="1.1" viewBox="0 0 2480 2528.59">
  <!-- Generator: Adobe Illustrator 29.7.1, SVG Export Plug-In . SVG Version: 2.1.1 Build 8)  -->
  <defs>
    <style>
      .st0 {
        fill: #3c6f76;
        fill-rule: evenodd;
      }

      .st1 {
        fill: #889393;
      }

      .st2 {
        fill: #fff;
      }

      .st3 {
        fill: #002a45;
      }
    </style>
  </defs>
  <g id="Group_4">
    <g id="Object_10">
      <rect class="st1" x="627.66" y="344.51" width="1224.97" height="1224.97" transform="translate(-10.33 13.54) rotate(-.62)"/>
      <path class="st2" d="M1836.05,348l13.1,1204.9-1204.9,13.1-13.1-1204.9,1204.9-13.1M1855.83,327.78l-20,.22-1204.9,13.1-20,.22.22,20,13.1,1204.9.22,20,20-.22,1204.9-13.1,20-.22-.22-20-13.1-1204.9-.22-20h0Z"/>
    </g>
    <g id="Object_11">
      <rect class="st2" x="627.66" y="344.51" width="1224.97" height="1224.97" transform="translate(-315.43 1141.34) rotate(-44.41)"/>
      <path class="st2" d="M1248.85,105l843.3,860.7-860.7,843.3L388.15,948.3,1248.85,105M1249.14,76.71l-14.29,14L374.15,934.01l-14.29,14,14,14.29,843.3,860.7,14,14.29,14.29-14,860.7-843.3,14.29-14-14-14.29L1263.14,91l-14-14.29h0Z"/>
    </g>
    <path id="Object_12" class="st0" d="M491.05,2072.8c15.67,34.6,31.3,70.37,46.9,107.3l7.5-.5,3.5-9.5c8.33-23.93,16.3-44.57,23.9-61.9-28.27-53.87-51.37-101.43-69.3-142.7l-8-17.9c-9.33-20.67-15.83-35.8-19.5-45.4-5.93-16.33-9.07-29.63-9.4-39.9,1.33-8,5.8-15.07,13.4-21.2,7.67-6.2,16.67-10.63,27-13.3l-.5-6-48.4.5c-9.33.33-21.47.5-36.4.5l-59.4-.5c-6-.33-12.5-.5-19.5-.5l-.5,6.5c10.33,3,20.33,9.23,30,18.7,9.6,9.53,18.4,21.1,26.4,34.7,17.33,29.6,48.1,93.3,92.3,191.1h0ZM642.75,1927.6l6,1c11.27-20.93,21.73-37.8,31.4-50.6s20.8-24.37,33.4-34.7c9-7.33,17-12.5,24-15.5l-.5-6c-.67,0-7.23.17-19.7.5-12.47.33-25.2.5-38.2.5l-41.9-.5c-9.33-.33-21.63-.5-36.9-.5l-.5,6c10.6,3.67,18.57,8.5,23.9,14.5,7.33,7.67,12.57,16.57,15.7,26.7,3.2,10.13,4.8,23.2,4.8,39.2,0,6.93-.5,13.4-1.5,19.4h0ZM755.95,2166.1l.5,6c33.93-1,63.2-1.5,87.8-1.5,18.93,0,42.03.33,69.3,1,2.67.33,6.17.5,10.5.5l.5-6c-17.6-6-29.9-14.8-36.9-26.4-6-10.33-9.9-25.73-11.7-46.2-1.87-20.47-2.8-55.47-2.8-105,0-36.93.33-64.13,1-81.6.67-17.47,2.17-30.2,4.5-38.2,6-21.6,21.47-35.23,46.4-40.9l-.5-6c-6.33,0-11.17.17-14.5.5-28.6.67-52.03,1-70.3,1-11.33,0-27.97-.33-49.9-1l-35.4-.5-.5,6c9.6,2,18.33,4.77,26.2,8.3,7.8,3.47,14.7,9.53,20.7,18.2,6.6,9.27,10.73,23.4,12.4,42.4,1.67,18.93,2.5,50.2,2.5,93.8,0,61.2-1.67,100.77-5,118.7-1.27,8.33-3.73,16.23-7.4,23.7-3.67,7.47-8.33,13.37-14,17.7-9.67,7.33-20.8,12.5-33.4,15.5h0ZM1102.55,2001c33.27,72.47,55.23,124,65.9,154.6h7c7.33-13.27,16.63-36.2,27.9-68.8l-62.3-134.2-19.5-42c-18.6-40.87-32.57-69.97-41.9-87.3-2-1-5-1.5-9-1.5-2.67,0-7.5.17-14.5.5-6.93.33-18.73.67-35.4,1-9,0-19.73-.17-32.2-.5-12.47-.33-22.53-.67-30.2-1l-.5,6c21.33,3.33,40.97,12.5,58.9,27.5,14.67,11.93,26.17,25.23,34.5,39.9,6.27,11.27,13.5,25.4,21.7,42.4,8.13,16.93,16.03,33.73,23.7,50.4l5.9,13ZM1244.15,2166.1l.5,6,36.5-.5c21.27-.67,36.73-1,46.4-1,10.6,0,26.9.33,48.9,1l29.9.5.5-6.5c-11.67-3.33-20.47-7.3-26.4-11.9-6-4.67-11.5-13-16.5-25-3-7.33-5.4-19.23-7.2-35.7-1.87-16.47-3.8-39.17-5.8-68.1-2-30.6-3-64.83-3-102.7v-17c0-19.93,3.5-36.07,10.5-48.4,3.67-6.33,9.5-12.07,17.5-17.2,7.93-5.2,17.23-9.1,27.9-11.7l-.5-6c-13.93,1-30.4,1.5-49.4,1.5-10,0-22.63-.33-37.9-1l-20-.5c-2.67,0-4.67.33-6,1-1.27.67-2.23,2-2.9,4-1.67,3.27-2.5,9.07-2.5,17.4,0,7.33.83,20.13,2.5,38.4.33,7.33.9,16.5,1.7,27.5.8,10.93,1.53,24.07,2.2,39.4,2,40.6,3,76.37,3,107.3,0,37.53-3.13,63.47-9.4,77.8-4.33,10-9.77,17.23-16.3,21.7-6.47,4.47-14.53,7.7-24.2,9.7h0ZM963.75,2166.1l.5,6,26-.5c15.93-.67,27.73-1,35.4-1s21.3.33,41.9,1l36.9.5.5-6c-21.93-5-38.53-16.97-49.8-35.9-9-15.27-14.67-36.9-17-64.9h-7c-2,14.33-6,28.57-12,42.7s-13.47,26.2-22.4,36.2c-9.67,10.93-20.67,18.23-33,21.9ZM1658.25,2166.1l.5,6,46.9-.5c9-.33,20.8-.5,35.4-.5l59.4.5c6,.33,12.47.5,19.4.5l.5-6.5c-18.6-5-37.37-22.8-56.3-53.4-16.67-26.6-47.43-90.27-92.3-191-15.67-34.6-31.3-70.37-46.9-107.3l-7.5.5c-7,19.93-15.33,41.87-25,65.8,24.6,49.93,47.9,99.5,69.9,148.7-11.67.67-30.97,1-57.9,1-37.93,0-63.03-.33-75.3-1l-6.5,11.5c11.93-.33,39.2-.5,81.8-.5,29.6,0,50.57.17,62.9.5l4.5,10c9.93,23.27,15.73,37.07,17.4,41.4,6.33,17.27,9.67,30.9,10,40.9-2,8-6.83,15-14.5,21-7.67,5.93-16.47,10.07-26.4,12.4h0ZM1425.25,2166.1l.5,6h11.4c16-.67,31.5-1,46.5-1l41.9.5c9.27.33,21.57.5,36.9.5l.5-6c-10.67-3.67-18.67-8.47-24-14.4-6.93-8-12.07-17-15.4-27-3.33-9.93-5-22.9-5-38.9,0-7,.5-13.5,1.5-19.5l-6-1c-11,20.33-21.4,36.97-31.2,49.9-9.8,13-21.03,24.83-33.7,35.5-8.93,7.27-16.9,12.4-23.9,15.4h0ZM1838.75,2166.1l.5,6c23.93-.67,51.87-1,83.8-1l77.4.5.5-6c-6.67-1.33-13.5-4.63-20.5-9.9-12.6-10-20.07-28.8-22.4-56.4-1.67-19.33-2.5-50.27-2.5-92.8v-36.4c0-28,.33-49.63,1-64.9.67-15.33,2.13-26.97,4.4-34.9,3-10.33,8.77-19.07,17.3-26.2,8.47-7.2,20.67-12.6,36.6-16.2l-.5-6c-44.87,1-75.63,1.5-92.3,1.5-11.27,0-27.9-.33-49.9-1l-35.4-.5-.5,6c9.67,2,18.4,4.73,26.2,8.2,7.8,3.47,14.7,9.53,20.7,18.2,6.33,9.33,10.4,23.3,12.2,41.9,1.87,18.6,2.8,48.2,2.8,88.8v39.4c0,22.33-.67,42.13-2,59.4-1.67,27.93-7,47.57-16,58.9-4.67,6-11.07,11.13-19.2,15.4-8.13,4.33-15.53,7-22.2,8ZM2025.35,2171.6c13.33.33,33.3.5,59.9.5,14.93,0,27.07-.33,36.4-1,1.67-7.33,4.67-25.3,9-53.9l7-41.9-6.5-1c-11.33,19.33-26.63,37.8-45.9,55.4-8.33,7.67-18.07,14.83-29.2,21.5-11.13,6.6-21.53,11.4-31.2,14.4l.5,6Z"/>
    <path id="Object_13" class="st0" d="M342.35,2325.4c0-15.6,3.3-30.1,10-43.3,6.7-13.4,16.4-24.9,29.2-34.8,9.5-7.4,19.8-13,30.8-16.9,11.1-4,22.2-5.9,33.4-5.9,14.27,0,28.07,3.1,41.4,9.3,13.33,6.27,25,15.1,35,26.5,16.3,18.5,24.5,39.6,24.5,63.2,0,11.87-2.13,23.33-6.4,34.4-4.27,11-10.5,21.03-18.7,30.1-10,11.33-21.8,20.1-35.4,26.3-13.7,6.2-28,9.3-42.9,9.3-14.73,0-28.8-3.03-42.2-9.1-13.5-6-25.1-14.5-34.8-25.5-7.7-8.6-13.6-18.4-17.7-29.4-4.2-11-6.2-22.4-6.2-34.2h0ZM375.95,2327.3c0,27,7.3,49.6,21.9,68.1,6.6,8.2,13.6,14.3,21,18,7.3,3.8,15.9,5.6,25.5,5.6s18.3-1.8,25.6-5.5c7.4-3.73,14.43-9.77,21.1-18.1,14.67-18.53,22-41.4,22-68.6,0-14.93-2.03-29.07-6.1-42.4-4-13.3-9.6-24.6-17-33.8-5.93-7.67-12.53-13.23-19.8-16.7-7.3-3.4-15.9-5.2-25.8-5.2s-18.4,1.7-25.5,5.2c-7.2,3.4-13.9,9-20,16.7-7.3,9.1-13,20.4-17,33.8-3.9,13.3-5.9,27.7-5.9,42.9h0ZM564.85,2229l40.1-5.1v154.9l.1,10.6c0,6.33.37,10.93,1.1,13.8.8,2.93,2.23,5.37,4.3,7.3,2.6,2.53,7.4,4.43,14.4,5.7v2.8h-61.4v-2.8c5.5-.8,9.4-1.8,11.9-3.1,2.4-1.4,4.3-3.6,5.8-6.9,1-2.13,1.7-5.33,2.1-9.6.4-4.27.6-10.5.6-18.7v-108.8c0-9.4-.2-16.1-.7-19.9-.4-3.9-1.4-7.1-3-9.4-1.6-2.6-3.5-4.5-5.7-5.6-2.3-1.1-5.5-1.8-9.6-2.1v-3.1ZM661.85,2343.4c-.33,4.53-.5,7.83-.5,9.9,0,8,1.2,15.9,3.5,23.6,2.33,7.67,5.57,14.07,9.7,19.2,4.1,5.2,9.2,9.3,15.4,12.3,6.13,2.93,12.6,4.4,19.4,4.4,4.9,0,9.7-.8,14.1-2.5,4.5-1.7,8.2-4,11.2-7,3.3-3.2,6.2-8.4,8.6-15.5l2.8,1c-2.4,10.87-7.57,19.03-15.5,24.5-7.9,5.6-18.4,8.3-31.6,8.3-11.4,0-21.17-1.8-29.3-5.4-8.1-3.6-15.1-9.2-20.7-16.7-7.9-10.4-11.8-23.3-11.8-38.6,0-20.8,7.47-37.13,22.4-49,10.8-8.6,23.13-12.9,37-12.9,7.4,0,14.3,1.3,20.6,4,6.3,2.6,11.6,6.4,16,11.4,6.73,7.73,10.1,17.4,10.1,29h-81.4ZM722.45,2338c-.67-9.2-2.37-16.27-5.1-21.2-2.5-4.5-5.9-8.1-10-10.7-4.1-2.6-8.6-3.9-13.3-3.9-7.9,0-14.8,3.4-20.8,10.1-5.93,6.87-9.43,15.43-10.5,25.7h59.7ZM765.25,2360.5c0-15,5.57-28.37,16.7-40.1,13.5-14.3,29.6-21.4,48.4-21.4s34.9,7.1,48.3,21.4c11.07,11.87,16.6,25.3,16.6,40.3s-5.2,28-15.8,39.6c-12.93,14.2-29.3,21.3-49.1,21.3s-36.2-7.1-49.2-21.3c-5.2-5.6-9-11.8-11.8-18.6-2.7-6.9-4.1-13.9-4.1-21.2h0ZM790.55,2359c0,16.07,3.63,29.67,10.9,40.8,8.1,12.5,18,18.7,29.7,18.7,5,0,9.8-1.4,14.6-4.2,4.7-2.7,8.8-6.6,12.2-11.6,3.6-5.13,6.5-11.63,8.7-19.5,2.2-7.73,3.3-15.27,3.3-22.6,0-7.6-1.17-15.23-3.5-22.9-2.33-7.73-5.5-14.37-9.5-19.9-7.53-10.47-16.83-15.67-27.9-15.6-10.4,0-19.4,5.5-27,16.5-7.6,10.9-11.5,24.4-11.5,40.3ZM1152.85,2229.3l1.7,61.2h-3.1c-1-2.73-1.8-4.77-2.4-6.1-3.2-8.9-5.8-15.5-7.9-19.9-3.6-7.8-8.8-14.9-15.7-21.4-5.2-4.9-10.6-8.5-16.1-10.7-5.6-2.3-11.9-3.4-18.9-3.4-10.4,0-19.5,2.3-27.2,6.8-6.8,4-13.1,9.73-18.9,17.2-5.9,7.4-10.7,15.9-14.4,25.4-5.3,13.5-7.9,28.8-7.9,45.9,0,14.5,1.8,27.6,5.4,39.3,3.6,11.6,8.9,21.4,15.9,29.3,12.8,14.6,29.77,21.9,50.9,21.9,10.6,0,20-1.8,28.5-5.5,8.4-3.67,14.93-8.8,19.6-15.4,5.33-7.73,9.23-18.13,11.7-31.2l3.1.6c-1.73,14.67-5.7,26.3-11.9,34.9-6,8.3-14.1,14.5-24.6,18.9-10.4,4.33-22.47,6.5-36.2,6.5-12.73,0-24.97-1.9-36.7-5.7-18.6-6.07-33.13-17.1-43.6-33.1-10.47-15.93-15.7-34.97-15.7-57.1,0-17,3-32.6,9.2-46.9,6.07-14.33,14.6-25.83,25.6-34.5,8.3-6.7,18.4-12,30.2-15.9,11.67-3.93,23.4-5.9,35.2-5.9s23.07,2.13,35.6,6.4l11.3,3.8c2.27.87,4.23,1.3,5.9,1.3,2.3,0,4.2-1,5.7-2.9.6-1,1.4-2.5,2.3-4.6l3.4.8ZM1210.75,2224.1v94.8c3.2-3.9,6.1-7,8.7-9.2,2.4-2.2,5.5-4.1,9-5.8,6.73-3.27,14.4-4.9,23-4.9,10.9,0,20,2.1,27.1,6.5,5.07,3.2,8.57,7.17,10.5,11.9,1.87,4.6,2.8,11.6,2.8,21v40.5l.1,10.5c.07,6.27.43,10.87,1.1,13.8.8,2.93,2.27,5.37,4.4,7.3,2.6,2.53,7.37,4.43,14.3,5.7v2.8h-61.4v-2.8c4.9-.7,8.4-1.4,10.4-2.4,2.1-.9,4-2.5,5.6-4.7,1.67-2.33,2.83-5.5,3.5-9.5.6-3.93.93-9.8,1-17.6v-44c0-6.7-.6-12-1.6-15.9-1-3.8-2.7-7.3-5.1-10.1-4.67-5.47-11.3-8.2-19.9-8.2-22.33,0-33.5,17.7-33.5,53.1v22.2l.2,10.3c0,6.2.3,10.9,1.1,13.8.73,2.93,2.17,5.37,4.3,7.3,2.53,2.53,7.27,4.43,14.2,5.7v2.8h-61.3v-2.8c5.5-.8,9.5-1.8,11.9-3.2,2.4-1.3,4.3-3.6,5.8-6.8,1-2.13,1.73-5.33,2.2-9.6.4-4.27.6-10.47.6-18.6v-108.7c0-9.33-.23-15.97-.7-19.9-.5-3.9-1.5-7-3.1-9.4-1.5-2.6-3.5-4.4-5.7-5.5-2.2-1.2-5.4-1.8-9.6-2.1v-3.1l40.1-5.2ZM1347.85,2343.3c-.33,4.53-.5,7.8-.5,9.8,0,8.1,1.2,16,3.5,23.7,2.33,7.67,5.53,14.07,9.6,19.2,4.2,5.2,9.3,9.3,15.5,12.2,6.13,3,12.6,4.5,19.4,4.5,4.9,0,9.7-.9,14.1-2.5,4.5-1.7,8.2-4,11.2-7,3.3-3.2,6.2-8.4,8.6-15.6l2.8,1c-2.4,10.87-7.57,19.07-15.5,24.6-7.9,5.6-18.4,8.3-31.6,8.3-11.4,0-21.17-1.8-29.3-5.4-8.1-3.6-15.1-9.2-20.7-16.7-7.9-10.4-11.8-23.3-11.8-38.6,0-20.8,7.47-37.13,22.4-49,10.8-8.6,23.13-12.9,37-12.9,7.4,0,14.3,1.3,20.6,3.9,6.3,2.7,11.6,6.5,16,11.5,6.73,7.67,10.1,17.33,10.1,29h-81.4ZM1408.45,2337.9c-.67-9.2-2.37-16.3-5.1-21.3-2.5-4.5-5.9-8-10-10.7-4.1-2.6-8.6-3.9-13.3-3.9-7.9,0-14.8,3.4-20.8,10.2-5.93,6.8-9.43,15.37-10.5,25.7h59.7ZM1486.15,2298.9c1.7,6.5,2.8,12.9,3.3,19.3,5.8-6.2,12.3-11,19.6-14.3,7.3-3.4,14.8-5,22.7-5,8.73,0,16,2.23,21.8,6.7,3.5,2.6,7.5,7.3,12.1,14,7-7.2,14.1-12.4,21.2-15.7,7.1-3.4,14.9-5,23.1-5,11.1,0,20.1,3,27.1,9.1,7,6,10.5,14,10.5,23.7v47.1l.2,10.5c0,6.33.37,10.93,1.1,13.8.7,2.9,2.1,5.4,4.2,7.3,2.67,2.53,7.47,4.43,14.4,5.7v2.8h-61.4v-2.8c5.53-.73,9.47-1.77,11.8-3.1,2.4-1.4,4.4-3.6,5.9-6.9,1-2.13,1.73-5.33,2.2-9.6.4-4.33.6-10.5.6-18.5v-26.5c0-10.27-.33-17.77-1-22.5s-1.9-8.73-3.7-12c-4.4-7.93-11.9-11.9-22.5-11.9-11.4,0-19.8,4.3-24.9,12.8-4.53,7.33-6.8,18.7-6.8,34.1v26.8l.1,10.5c0,6.33.37,10.97,1.1,13.9.8,2.87,2.2,5.27,4.2,7.2,2.6,2.53,7.43,4.43,14.5,5.7v2.8h-61.5v-2.8c5.6-.73,9.57-1.77,11.9-3.1,2.3-1.4,4.3-3.7,5.9-6.9,1-2.13,1.7-5.33,2.1-9.6.4-4.4.6-10.6.6-18.6v-25.7c0-10.8-.3-18.7-1-23.8-.7-5-2-9.1-3.9-12.3-2.07-3.33-4.93-5.93-8.6-7.8-3.7-1.9-7.9-2.9-12.5-2.9-5.2,0-10.1,1.27-14.7,3.8-4.6,2.5-8.3,5.9-11,10.1-2.47,3.8-4.23,8.37-5.3,13.7s-1.6,12.2-1.6,20.6v25.4l.2,10.3c0,6.33.37,10.93,1.1,13.8.73,2.93,2.17,5.37,4.3,7.3,2.6,2.53,7.37,4.43,14.3,5.7v2.8h-61.4v-2.8c5.5-.8,9.5-1.8,11.9-3.1,2.4-1.4,4.3-3.6,5.8-6.9,1-2.13,1.73-5.33,2.2-9.6.4-4.33.6-10.53.6-18.6v-34.2c0-9.5-.3-16.2-.7-20-.5-3.9-1.5-7-3.1-9.4-1.5-2.6-3.5-4.4-5.7-5.6-2.2-1.13-5.4-1.83-9.6-2.1v-2.9l38.3-4.8ZM1675.35,2304l40.2-5.1v80l.1,10.5c0,6.3.4,10.9,1.1,13.8.73,2.87,2.17,5.27,4.3,7.2,2.6,2.6,7.4,4.5,14.3,5.7v2.9h-61.5v-2.9c5.6-.7,9.6-1.7,12-3.1,2.4-1.33,4.33-3.6,5.8-6.8,1.1-2.1,1.8-5.3,2.2-9.6.4-4.3.6-10.5.6-18.6v-34.1c0-9.5-.2-16.1-.7-19.9-.4-3.9-1.5-7-3-9.4-1.6-2.5-3.5-4.4-5.8-5.6-2.2-1.13-5.4-1.83-9.6-2.1v-2.9ZM1704.45,2248.8c-3.6,0-6.6-1.17-9-3.5-2.4-2.33-3.6-5.23-3.6-8.7s1.23-6.37,3.7-8.7c2.4-2.4,5.37-3.6,8.9-3.6s6.43,1.2,8.9,3.6c2.4,2.33,3.6,5.23,3.6,8.7,0,3.47-1.2,6.37-3.6,8.7-2.33,2.33-5.3,3.5-8.9,3.5ZM1846.75,2392.7l2.8.9c-3.2,9.9-8.2,17-14.8,21.3-6.7,4.4-15.9,6.6-27.5,6.6-18.73,0-33.4-5.57-44-16.7-10.4-10.93-15.57-24.7-15.5-41.3-.07-8.2,1.37-16.27,4.3-24.2,2.8-8,6.8-14.8,11.7-20.4,5.7-6.5,12.6-11.4,20.8-14.9,8.2-3.4,17.1-5.1,26.8-5.1,13.5,0,24,3,31.6,9,4.6,3.7,6.9,7.7,6.9,12.2,0,2.93-.97,5.4-2.9,7.4-1.93,1.93-4.3,2.9-7.1,2.9-6,0-10.4-4.3-13.3-13.1-1.33-4-2.4-6.73-3.2-8.2-.7-1.6-1.9-2.8-3.3-3.9-2.87-2.13-6.4-3.2-10.6-3.2-5.4,0-10.4,1.53-15,4.6-4.1,2.7-7.5,6-10.3,10.1-2.8,4-5.27,9.07-7.4,15.2-3.2,9.3-4.9,18.5-4.9,27.5,0,8.2,1.5,16.27,4.5,24.2,2.9,7.8,6.9,14.4,12,19.7,7.9,8.3,17.3,12.5,27.9,12.5,8.9,0,16.2-2.8,22-8.6,3-3,5.8-7.8,8.5-14.5ZM1980.25,2405.5l2.3,1.4c-3.33,9.73-10.97,14.6-22.9,14.6-6.6,0-12.07-1.6-16.4-4.8-2.9-2.2-5.8-5.9-8.9-11.2-6.2,5.6-10.9,9.2-14,11-6.07,3.33-13.1,5-21.1,5-10.2,0-18.27-2.47-24.2-7.4-6-4.9-9-11.5-9-19.8,0-7.73,2.47-14.17,7.4-19.3,2.73-2.93,5.9-5.23,9.5-6.9,3.6-1.73,8.8-3.47,15.6-5.2,8.07-2.07,14-3.77,17.8-5.1,3.87-1.47,7.1-3.17,9.7-5.1,2.9-2.1,5-4.6,6.1-7.5,1.07-2.8,1.6-6.77,1.6-11.9,0-10.8-2-18.7-6.1-23.7-1.8-2.27-4.17-4.1-7.1-5.5-2.9-1.4-5.9-2.1-9-2.1-3.8,0-7.1,1-10.1,2.9-3,2-5.1,4.6-6.6,8.1l-3.5,8.1c-1.8,4.33-5.1,6.5-9.9,6.5-3.2,0-5.8-1-7.9-3.1-2.2-2.1-3.2-4.8-3.2-7.9,0-4.7,3.3-8.8,10-12,3.6-1.73,8.07-3.1,13.4-4.1,5.27-1.07,10.43-1.6,15.5-1.6,5.8,0,11.8.73,18,2.2,6.2,1.47,11.37,3.37,15.5,5.7,6,3.4,9.77,7.83,11.3,13.3.7,2.8,1.1,7.5,1.1,14.1v51.4c0,8.67.37,14.6,1.1,17.8,1.6,6.6,5.4,9.8,11.5,9.8,2.8,0,5.1-.5,6.7-1.5s3.6-3.1,5.8-6.2h0ZM1934.05,2350.8c-5,4.2-10.4,7.9-16.4,11-6.7,3.6-11.3,6.3-13.9,8.2s-4.9,4.1-7,6.7c-4.33,5.4-6.5,11.67-6.5,18.8,0,6.1,1.6,11.2,5,15.2s7.6,6,12.8,6c4.5,0,8.7-1.5,12.7-4.3s7-6.6,9-11.3c2.87-6.27,4.3-15.27,4.3-27v-23.3ZM1984.05,2228.9l40.1-5.2v155l.2,10.6c0,6.27.37,10.87,1.1,13.8.73,2.93,2.17,5.37,4.3,7.3,2.6,2.47,7.37,4.37,14.3,5.7v2.8h-61.4v-2.8c5.6-.8,9.5-1.8,11.9-3.2,2.4-1.3,4.3-3.6,5.8-6.8,1-2.13,1.73-5.37,2.2-9.7.4-4.27.6-10.47.6-18.6v-108.8c0-9.4-.3-16.1-.7-19.9-.5-3.9-1.5-7.1-3.1-9.5-1.5-2.6-3.5-4.4-5.7-5.5-2.2-1.2-5.4-1.8-9.6-2.1v-3.1ZM2061.25,2418.9v-39.5h2.2c2.67,9.67,5.9,17.4,9.7,23.2,7.13,10.53,15.47,15.8,25,15.8,5.7,0,10.8-1.8,15-5.3,4.6-3.87,6.93-9.37,7-16.5,0-5.8-1.7-10.9-5-15.3-1.87-2.27-4.2-4.4-7-6.4-2.8-1.9-7.6-4.7-14.2-8.2-11.67-6.13-19.43-11.3-23.3-15.5-5.53-5.87-8.3-12.7-8.3-20.5,0-8.3,2.8-15.5,8.3-21.5,6.4-6.9,14.9-10.3,25.5-10.3,4.73,0,9.13.83,13.2,2.5l4.7,2c1.47.6,2.77.9,3.9.9,1.8,0,3.47-1.13,5-3.4h2.8l1.5,30.7h-2.9c-1-4.4-2.07-7.97-3.2-10.7-1.2-2.6-2.8-5.2-4.9-7.7-2.9-3.5-6.2-6.3-10-8.2-3.8-2-7.53-3-11.2-3-5.2,0-9.7,1.9-13.3,5.6-3.67,3.73-5.5,8.33-5.5,13.8,0,4.5,1.7,8.6,5,12.3,3.2,3.6,8.3,7,15.1,10l14.7,6.7c8.7,4,15.3,8.9,19.6,14.9,4.3,5.9,6.5,12.9,6.5,20.9,0,9.73-3.13,17.8-9.4,24.2-7.2,7.4-16.47,11.1-27.8,11.1-6.07,0-12.23-1.23-18.5-3.7-4.07-1.6-6.53-2.53-7.4-2.8-.8-.2-1.9-.3-3.2-.3-3.27,0-5.73,1.4-7.4,4.2h-2.2Z"/>
    <path class="st3" d="M1156.62,932.1l-84.11,38.16c-116.97,68.47-198.31,199.15-198.2,335.39l326.72-315.73-48.9,733.79L392.07,947.66,1247.76,105l840.47,862.64-758.18,742.72-53.39-720.4,333.37,315.71c-6.14-153.3-98.54-292.74-238.43-355.13l-46.02-18.38,440.05,4.39c2.61-10.27-1.99-7.33-5.59-10.16-18.63-14.63-52.79-34.06-74.3-45.51-103.62-55.14-212.32-84.46-329.06-51.09l266.73-284.53c-150.91.08-315.87,110.17-367.98,252.22-3.37,9.2-9.69,49.43-12.16,50.17-9.99,2.97-5.53-5.87-6.72-10.88-39.48-166.92-208.25-288.35-377.78-291.51l266.73,284.53c-148.83-44.15-285.93,20.25-408.95,97.97l-.06,6.54c.75,6.29,5.66-2.18,6.69-2.18h433.44Z"/>
  </g>
</svg>