<?xml version="1.0" encoding="UTF-8" standalone="no"?>
<!DOCTYPE svg PUBLIC "-//W3C//DTD SVG 1.1//EN" "http://www.w3.org/Graphics/SVG/1.1/DTD/svg11.dtd">
<svg width="100%" height="100%" viewBox="0 0 2480 2529" version="1.1" xmlns="http://www.w3.org/2000/svg" xmlns:xlink="http://www.w3.org/1999/xlink" xml:space="preserve" xmlns:serif="http://www.serif.com/" style="fill-rule:evenodd;clip-rule:evenodd;stroke-linejoin:round;stroke-miterlimit:2;">
    <g id="Group_4">
        <g id="Object_10">
            <g transform="matrix(0.999941,-0.010821,0.010821,0.999941,-10.33,13.54)">
                <rect x="627.66" y="344.51" width="1224.97" height="1224.97" style="fill:rgb(136,147,147);"/>
            </g>
            <path d="M1836.05,348L1849.15,1552.9L644.25,1566L631.15,361.1L1836.05,348M1855.83,327.78L1835.83,328L630.93,341.1L610.93,341.32L611.15,361.32L624.25,1566.22L624.47,1586.22L644.47,1586L1849.37,1572.9L1869.37,1572.68L1869.15,1552.68L1856.05,347.78L1855.83,327.78Z" style="fill:white;fill-rule:nonzero;"/>
        </g>
        <g id="Object_11">
            <g transform="matrix(0.714351,-0.699788,0.699788,0.714351,-315.43,1141.34)">
                <rect x="627.66" y="344.51" width="1224.97" height="1224.97" style="fill:white;"/>
            </g>
            <path d="M1248.85,105L2092.15,965.7L1231.45,1809L388.15,948.3L1248.85,105M1249.14,76.71L1234.85,90.71L374.15,934.01L359.86,948.01L373.86,962.3L1217.16,1823L1231.16,1837.29L1245.45,1823.29L2106.15,979.99L2120.44,965.99L2106.44,951.7L1263.14,91L1249.14,76.71Z" style="fill:white;fill-rule:nonzero;"/>
        </g>
        <path id="Object_12" d="M491.05,2072.8C506.72,2107.4 522.35,2143.17 537.95,2180.1L545.45,2179.6L548.95,2170.1C557.28,2146.17 565.25,2125.53 572.85,2108.2C544.58,2054.33 521.48,2006.77 503.55,1965.5L495.55,1947.6C486.22,1926.93 479.72,1911.8 476.05,1902.2C470.12,1885.87 466.98,1872.57 466.65,1862.3C467.98,1854.3 472.45,1847.23 480.05,1841.1C487.72,1834.9 496.72,1830.47 507.05,1827.8L506.55,1821.8L458.15,1822.3C448.82,1822.63 436.68,1822.8 421.75,1822.8L362.35,1822.3C356.35,1821.97 349.85,1821.8 342.85,1821.8L342.35,1828.3C352.68,1831.3 362.68,1837.53 372.35,1847C381.95,1856.53 390.75,1868.1 398.75,1881.7C416.08,1911.3 446.85,1975 491.05,2072.8ZM642.75,1927.6L648.75,1928.6C660.02,1907.67 670.48,1890.8 680.15,1878C689.82,1865.2 700.95,1853.63 713.55,1843.3C722.55,1835.97 730.55,1830.8 737.55,1827.8L737.05,1821.8C736.38,1821.8 729.82,1821.97 717.35,1822.3C704.88,1822.63 692.15,1822.8 679.15,1822.8L637.25,1822.3C627.92,1821.97 615.62,1821.8 600.35,1821.8L599.85,1827.8C610.45,1831.47 618.42,1836.3 623.75,1842.3C631.08,1849.97 636.32,1858.87 639.45,1869C642.65,1879.13 644.25,1892.2 644.25,1908.2C644.25,1915.13 643.75,1921.6 642.75,1927.6ZM755.95,2166.1L756.45,2172.1C790.38,2171.1 819.65,2170.6 844.25,2170.6C863.18,2170.6 886.28,2170.93 913.55,2171.6C916.22,2171.93 919.72,2172.1 924.05,2172.1L924.55,2166.1C906.95,2160.1 894.65,2151.3 887.65,2139.7C881.65,2129.37 877.75,2113.97 875.95,2093.5C874.08,2073.03 873.15,2038.03 873.15,1988.5C873.15,1951.57 873.48,1924.37 874.15,1906.9C874.82,1889.43 876.32,1876.7 878.65,1868.7C884.65,1847.1 900.12,1833.47 925.05,1827.8L924.55,1821.8C918.22,1821.8 913.38,1821.97 910.05,1822.3C881.45,1822.97 858.02,1823.3 839.75,1823.3C828.42,1823.3 811.78,1822.97 789.85,1822.3L754.45,1821.8L753.95,1827.8C763.55,1829.8 772.28,1832.57 780.15,1836.1C787.95,1839.57 794.85,1845.63 800.85,1854.3C807.45,1863.57 811.58,1877.7 813.25,1896.7C814.92,1915.63 815.75,1946.9 815.75,1990.5C815.75,2051.7 814.08,2091.27 810.75,2109.2C809.48,2117.53 807.02,2125.43 803.35,2132.9C799.68,2140.37 795.02,2146.27 789.35,2150.6C779.68,2157.93 768.55,2163.1 755.95,2166.1ZM1102.55,2001C1135.82,2073.47 1157.78,2125 1168.45,2155.6L1175.45,2155.6C1182.78,2142.33 1192.08,2119.4 1203.35,2086.8L1141.05,1952.6L1121.55,1910.6C1102.95,1869.73 1088.98,1840.63 1079.65,1823.3C1077.65,1822.3 1074.65,1821.8 1070.65,1821.8C1067.98,1821.8 1063.15,1821.97 1056.15,1822.3C1049.22,1822.63 1037.42,1822.97 1020.75,1823.3C1011.75,1823.3 1001.02,1823.13 988.55,1822.8C976.08,1822.47 966.02,1822.13 958.35,1821.8L957.85,1827.8C979.18,1831.13 998.82,1840.3 1016.75,1855.3C1031.42,1867.23 1042.92,1880.53 1051.25,1895.2C1057.52,1906.47 1064.75,1920.6 1072.95,1937.6C1081.08,1954.53 1088.98,1971.33 1096.65,1988L1102.55,2001ZM1244.15,2166.1L1244.65,2172.1L1281.15,2171.6C1302.42,2170.93 1317.88,2170.6 1327.55,2170.6C1338.15,2170.6 1354.45,2170.93 1376.45,2171.6L1406.35,2172.1L1406.85,2165.6C1395.18,2162.27 1386.38,2158.3 1380.45,2153.7C1374.45,2149.03 1368.95,2140.7 1363.95,2128.7C1360.95,2121.37 1358.55,2109.47 1356.75,2093C1354.88,2076.53 1352.95,2053.83 1350.95,2024.9C1348.95,1994.3 1347.95,1960.07 1347.95,1922.2L1347.95,1905.2C1347.95,1885.27 1351.45,1869.13 1358.45,1856.8C1362.12,1850.47 1367.95,1844.73 1375.95,1839.6C1383.88,1834.4 1393.18,1830.5 1403.85,1827.9L1403.35,1821.9C1389.42,1822.9 1372.95,1823.4 1353.95,1823.4C1343.95,1823.4 1331.32,1823.07 1316.05,1822.4L1296.05,1821.9C1293.38,1821.9 1291.38,1822.23 1290.05,1822.9C1288.78,1823.57 1287.82,1824.9 1287.15,1826.9C1285.48,1830.17 1284.65,1835.97 1284.65,1844.3C1284.65,1851.63 1285.48,1864.43 1287.15,1882.7C1287.48,1890.03 1288.05,1899.2 1288.85,1910.2C1289.65,1921.13 1290.38,1934.27 1291.05,1949.6C1293.05,1990.2 1294.05,2025.97 1294.05,2056.9C1294.05,2094.43 1290.92,2120.37 1284.65,2134.7C1280.32,2144.7 1274.88,2151.93 1268.35,2156.4C1261.88,2160.87 1253.82,2164.1 1244.15,2166.1ZM963.75,2166.1L964.25,2172.1L990.25,2171.6C1006.18,2170.93 1017.98,2170.6 1025.65,2170.6C1033.32,2170.6 1046.95,2170.93 1067.55,2171.6L1104.45,2172.1L1104.95,2166.1C1083.02,2161.1 1066.42,2149.13 1055.15,2130.2C1046.15,2114.93 1040.48,2093.3 1038.15,2065.3L1031.15,2065.3C1029.15,2079.63 1025.15,2093.87 1019.15,2108C1013.15,2122.13 1005.68,2134.2 996.75,2144.2C987.08,2155.13 976.08,2162.43 963.75,2166.1ZM1658.25,2166.1L1658.75,2172.1L1705.65,2171.6C1714.65,2171.27 1726.45,2171.1 1741.05,2171.1L1800.45,2171.6C1806.45,2171.93 1812.92,2172.1 1819.85,2172.1L1820.35,2165.6C1801.75,2160.6 1782.98,2142.8 1764.05,2112.2C1747.38,2085.6 1716.62,2021.93 1671.75,1921.2C1656.08,1886.6 1640.45,1850.83 1624.85,1813.9L1617.35,1814.4C1610.35,1834.33 1602.02,1856.27 1592.35,1880.2C1616.95,1930.13 1640.25,1979.7 1662.25,2028.9C1650.58,2029.57 1631.28,2029.9 1604.35,2029.9C1566.42,2029.9 1541.32,2029.57 1529.05,2028.9L1522.55,2040.4C1534.48,2040.07 1561.75,2039.9 1604.35,2039.9C1633.95,2039.9 1654.92,2040.07 1667.25,2040.4L1671.75,2050.4C1681.68,2073.67 1687.48,2087.47 1689.15,2091.8C1695.48,2109.07 1698.82,2122.7 1699.15,2132.7C1697.15,2140.7 1692.32,2147.7 1684.65,2153.7C1676.98,2159.63 1668.18,2163.77 1658.25,2166.1ZM1425.25,2166.1L1425.75,2172.1L1437.15,2172.1C1453.15,2171.43 1468.65,2171.1 1483.65,2171.1L1525.55,2171.6C1534.82,2171.93 1547.12,2172.1 1562.45,2172.1L1562.95,2166.1C1552.28,2162.43 1544.28,2157.63 1538.95,2151.7C1532.02,2143.7 1526.88,2134.7 1523.55,2124.7C1520.22,2114.77 1518.55,2101.8 1518.55,2085.8C1518.55,2078.8 1519.05,2072.3 1520.05,2066.3L1514.05,2065.3C1503.05,2085.63 1492.65,2102.27 1482.85,2115.2C1473.05,2128.2 1461.82,2140.03 1449.15,2150.7C1440.22,2157.97 1432.25,2163.1 1425.25,2166.1ZM1838.75,2166.1L1839.25,2172.1C1863.18,2171.43 1891.12,2171.1 1923.05,2171.1L2000.45,2171.6L2000.95,2165.6C1994.28,2164.27 1987.45,2160.97 1980.45,2155.7C1967.85,2145.7 1960.38,2126.9 1958.05,2099.3C1956.38,2079.97 1955.55,2049.03 1955.55,2006.5L1955.55,1970.1C1955.55,1942.1 1955.88,1920.47 1956.55,1905.2C1957.22,1889.87 1958.68,1878.23 1960.95,1870.3C1963.95,1859.97 1969.72,1851.23 1978.25,1844.1C1986.72,1836.9 1998.92,1831.5 2014.85,1827.9L2014.35,1821.9C1969.48,1822.9 1938.72,1823.4 1922.05,1823.4C1910.78,1823.4 1894.15,1823.07 1872.15,1822.4L1836.75,1821.9L1836.25,1827.9C1845.92,1829.9 1854.65,1832.63 1862.45,1836.1C1870.25,1839.57 1877.15,1845.63 1883.15,1854.3C1889.48,1863.63 1893.55,1877.6 1895.35,1896.2C1897.22,1914.8 1898.15,1944.4 1898.15,1985L1898.15,2024.4C1898.15,2046.73 1897.48,2066.53 1896.15,2083.8C1894.48,2111.73 1889.15,2131.37 1880.15,2142.7C1875.48,2148.7 1869.08,2153.83 1860.95,2158.1C1852.82,2162.43 1845.42,2165.1 1838.75,2166.1ZM2025.35,2171.6C2038.68,2171.93 2058.65,2172.1 2085.25,2172.1C2100.18,2172.1 2112.32,2171.77 2121.65,2171.1C2123.32,2163.77 2126.32,2145.8 2130.65,2117.2L2137.65,2075.3L2131.15,2074.3C2119.82,2093.63 2104.52,2112.1 2085.25,2129.7C2076.92,2137.37 2067.18,2144.53 2056.05,2151.2C2044.92,2157.8 2034.52,2162.6 2024.85,2165.6L2025.35,2171.6Z" style="fill:rgb(0,42,69);"/>
        <path id="Object_13" d="M342.35,2325.4C342.35,2309.8 345.65,2295.3 352.35,2282.1C359.05,2268.7 368.75,2257.2 381.55,2247.3C391.05,2239.9 401.35,2234.3 412.35,2230.4C423.45,2226.4 434.55,2224.5 445.75,2224.5C460.02,2224.5 473.82,2227.6 487.15,2233.8C500.48,2240.07 512.15,2248.9 522.15,2260.3C538.45,2278.8 546.65,2299.9 546.65,2323.5C546.65,2335.37 544.52,2346.83 540.25,2357.9C535.98,2368.9 529.75,2378.93 521.55,2388C511.55,2399.33 499.75,2408.1 486.15,2414.3C472.45,2420.5 458.15,2423.6 443.25,2423.6C428.52,2423.6 414.45,2420.57 401.05,2414.5C387.55,2408.5 375.95,2400 366.25,2389C358.55,2380.4 352.65,2370.6 348.55,2359.6C344.35,2348.6 342.35,2337.2 342.35,2325.4ZM375.95,2327.3C375.95,2354.3 383.25,2376.9 397.85,2395.4C404.45,2403.6 411.45,2409.7 418.85,2413.4C426.15,2417.2 434.75,2419 444.35,2419C453.95,2419 462.65,2417.2 469.95,2413.5C477.35,2409.77 484.38,2403.73 491.05,2395.4C505.72,2376.87 513.05,2354 513.05,2326.8C513.05,2311.87 511.02,2297.73 506.95,2284.4C502.95,2271.1 497.35,2259.8 489.95,2250.6C484.02,2242.93 477.42,2237.37 470.15,2233.9C462.85,2230.5 454.25,2228.7 444.35,2228.7C434.45,2228.7 425.95,2230.4 418.85,2233.9C411.65,2237.3 404.95,2242.9 398.85,2250.6C391.55,2259.7 385.85,2271 381.85,2284.4C377.95,2297.7 375.95,2312.1 375.95,2327.3ZM564.85,2229L604.95,2223.9L604.95,2378.8L605.05,2389.4C605.05,2395.73 605.42,2400.33 606.15,2403.2C606.95,2406.13 608.38,2408.57 610.45,2410.5C613.05,2413.03 617.85,2414.93 624.85,2416.2L624.85,2419L563.45,2419L563.45,2416.2C568.95,2415.4 572.85,2414.4 575.35,2413.1C577.75,2411.7 579.65,2409.5 581.15,2406.2C582.15,2404.07 582.85,2400.87 583.25,2396.6C583.65,2392.33 583.85,2386.1 583.85,2377.9L583.85,2269.1C583.85,2259.7 583.65,2253 583.15,2249.2C582.75,2245.3 581.75,2242.1 580.15,2239.8C578.55,2237.2 576.65,2235.3 574.45,2234.2C572.15,2233.1 568.95,2232.4 564.85,2232.1L564.85,2229ZM661.85,2343.4C661.52,2347.93 661.35,2351.23 661.35,2353.3C661.35,2361.3 662.55,2369.2 664.85,2376.9C667.18,2384.57 670.42,2390.97 674.55,2396.1C678.65,2401.3 683.75,2405.4 689.95,2408.4C696.08,2411.33 702.55,2412.8 709.35,2412.8C714.25,2412.8 719.05,2412 723.45,2410.3C727.95,2408.6 731.65,2406.3 734.65,2403.3C737.95,2400.1 740.85,2394.9 743.25,2387.8L746.05,2388.8C743.65,2399.67 738.48,2407.83 730.55,2413.3C722.65,2418.9 712.15,2421.6 698.95,2421.6C687.55,2421.6 677.78,2419.8 669.65,2416.2C661.55,2412.6 654.55,2407 648.95,2399.5C641.05,2389.1 637.15,2376.2 637.15,2360.9C637.15,2340.1 644.62,2323.77 659.55,2311.9C670.35,2303.3 682.68,2299 696.55,2299C703.95,2299 710.85,2300.3 717.15,2303C723.45,2305.6 728.75,2309.4 733.15,2314.4C739.88,2322.13 743.25,2331.8 743.25,2343.4L661.85,2343.4ZM722.45,2338C721.78,2328.8 720.08,2321.73 717.35,2316.8C714.85,2312.3 711.45,2308.7 707.35,2306.1C703.25,2303.5 698.75,2302.2 694.05,2302.2C686.15,2302.2 679.25,2305.6 673.25,2312.3C667.32,2319.17 663.82,2327.73 662.75,2338L722.45,2338ZM765.25,2360.5C765.25,2345.5 770.82,2332.13 781.95,2320.4C795.45,2306.1 811.55,2299 830.35,2299C849.15,2299 865.25,2306.1 878.65,2320.4C889.72,2332.27 895.25,2345.7 895.25,2360.7C895.25,2375.7 890.05,2388.7 879.45,2400.3C866.52,2414.5 850.15,2421.6 830.35,2421.6C810.55,2421.6 794.15,2414.5 781.15,2400.3C775.95,2394.7 772.15,2388.5 769.35,2381.7C766.65,2374.8 765.25,2367.8 765.25,2360.5ZM790.55,2359C790.55,2375.07 794.18,2388.67 801.45,2399.8C809.55,2412.3 819.45,2418.5 831.15,2418.5C836.15,2418.5 840.95,2417.1 845.75,2414.3C850.45,2411.6 854.55,2407.7 857.95,2402.7C861.55,2397.57 864.45,2391.07 866.65,2383.2C868.85,2375.47 869.95,2367.93 869.95,2360.6C869.95,2353 868.78,2345.37 866.45,2337.7C864.12,2329.97 860.95,2323.33 856.95,2317.8C849.42,2307.33 840.12,2302.13 829.05,2302.2C818.65,2302.2 809.65,2307.7 802.05,2318.7C794.45,2329.6 790.55,2343.1 790.55,2359ZM1152.85,2229.3L1154.55,2290.5L1151.45,2290.5C1150.45,2287.77 1149.65,2285.73 1149.05,2284.4C1145.85,2275.5 1143.25,2268.9 1141.15,2264.5C1137.55,2256.7 1132.35,2249.6 1125.45,2243.1C1120.25,2238.2 1114.85,2234.6 1109.35,2232.4C1103.75,2230.1 1097.45,2229 1090.45,2229C1080.05,2229 1070.95,2231.3 1063.25,2235.8C1056.45,2239.8 1050.15,2245.53 1044.35,2253C1038.45,2260.4 1033.65,2268.9 1029.95,2278.4C1024.65,2291.9 1022.05,2307.2 1022.05,2324.3C1022.05,2338.8 1023.85,2351.9 1027.45,2363.6C1031.05,2375.2 1036.35,2385 1043.35,2392.9C1056.15,2407.5 1073.12,2414.8 1094.25,2414.8C1104.85,2414.8 1114.25,2413 1122.75,2409.3C1131.15,2405.63 1137.68,2400.5 1142.35,2393.9C1147.68,2386.17 1151.58,2375.77 1154.05,2362.7L1157.15,2363.3C1155.42,2377.97 1151.45,2389.6 1145.25,2398.2C1139.25,2406.5 1131.15,2412.7 1120.65,2417.1C1110.25,2421.43 1098.18,2423.6 1084.45,2423.6C1071.72,2423.6 1059.48,2421.7 1047.75,2417.9C1029.15,2411.83 1014.62,2400.8 1004.15,2384.8C993.68,2368.87 988.45,2349.83 988.45,2327.7C988.45,2310.7 991.45,2295.1 997.65,2280.8C1003.72,2266.47 1012.25,2254.97 1023.25,2246.3C1031.55,2239.6 1041.65,2234.3 1053.45,2230.4C1065.12,2226.47 1076.85,2224.5 1088.65,2224.5C1100.45,2224.5 1111.72,2226.63 1124.25,2230.9L1135.55,2234.7C1137.82,2235.57 1139.78,2236 1141.45,2236C1143.75,2236 1145.65,2235 1147.15,2233.1C1147.75,2232.1 1148.55,2230.6 1149.45,2228.5L1152.85,2229.3ZM1210.75,2224.1L1210.75,2318.9C1213.95,2315 1216.85,2311.9 1219.45,2309.7C1221.85,2307.5 1224.95,2305.6 1228.45,2303.9C1235.18,2300.63 1242.85,2299 1251.45,2299C1262.35,2299 1271.45,2301.1 1278.55,2305.5C1283.62,2308.7 1287.12,2312.67 1289.05,2317.4C1290.92,2322 1291.85,2329 1291.85,2338.4L1291.85,2378.9L1291.95,2389.4C1292.02,2395.67 1292.38,2400.27 1293.05,2403.2C1293.85,2406.13 1295.32,2408.57 1297.45,2410.5C1300.05,2413.03 1304.82,2414.93 1311.75,2416.2L1311.75,2419L1250.35,2419L1250.35,2416.2C1255.25,2415.5 1258.75,2414.8 1260.75,2413.8C1262.85,2412.9 1264.75,2411.3 1266.35,2409.1C1268.02,2406.77 1269.18,2403.6 1269.85,2399.6C1270.45,2395.67 1270.78,2389.8 1270.85,2382L1270.85,2338C1270.85,2331.3 1270.25,2326 1269.25,2322.1C1268.25,2318.3 1266.55,2314.8 1264.15,2312C1259.48,2306.53 1252.85,2303.8 1244.25,2303.8C1221.92,2303.8 1210.75,2321.5 1210.75,2356.9L1210.75,2379.1L1210.95,2389.4C1210.95,2395.6 1211.25,2400.3 1212.05,2403.2C1212.78,2406.13 1214.22,2408.57 1216.35,2410.5C1218.88,2413.03 1223.62,2414.93 1230.55,2416.2L1230.55,2419L1169.25,2419L1169.25,2416.2C1174.75,2415.4 1178.75,2414.4 1181.15,2413C1183.55,2411.7 1185.45,2409.4 1186.95,2406.2C1187.95,2404.07 1188.68,2400.87 1189.15,2396.6C1189.55,2392.33 1189.75,2386.13 1189.75,2378L1189.75,2269.3C1189.75,2259.97 1189.52,2253.33 1189.05,2249.4C1188.55,2245.5 1187.55,2242.4 1185.95,2240C1184.45,2237.4 1182.45,2235.6 1180.25,2234.5C1178.05,2233.3 1174.85,2232.7 1170.65,2232.4L1170.65,2229.3L1210.75,2224.1ZM1347.85,2343.3C1347.52,2347.83 1347.35,2351.1 1347.35,2353.1C1347.35,2361.2 1348.55,2369.1 1350.85,2376.8C1353.18,2384.47 1356.38,2390.87 1360.45,2396C1364.65,2401.2 1369.75,2405.3 1375.95,2408.2C1382.08,2411.2 1388.55,2412.7 1395.35,2412.7C1400.25,2412.7 1405.05,2411.8 1409.45,2410.2C1413.95,2408.5 1417.65,2406.2 1420.65,2403.2C1423.95,2400 1426.85,2394.8 1429.25,2387.6L1432.05,2388.6C1429.65,2399.47 1424.48,2407.67 1416.55,2413.2C1408.65,2418.8 1398.15,2421.5 1384.95,2421.5C1373.55,2421.5 1363.78,2419.7 1355.65,2416.1C1347.55,2412.5 1340.55,2406.9 1334.95,2399.4C1327.05,2389 1323.15,2376.1 1323.15,2360.8C1323.15,2340 1330.62,2323.67 1345.55,2311.8C1356.35,2303.2 1368.68,2298.9 1382.55,2298.9C1389.95,2298.9 1396.85,2300.2 1403.15,2302.8C1409.45,2305.5 1414.75,2309.3 1419.15,2314.3C1425.88,2321.97 1429.25,2331.63 1429.25,2343.3L1347.85,2343.3ZM1408.45,2337.9C1407.78,2328.7 1406.08,2321.6 1403.35,2316.6C1400.85,2312.1 1397.45,2308.6 1393.35,2305.9C1389.25,2303.3 1384.75,2302 1380.05,2302C1372.15,2302 1365.25,2305.4 1359.25,2312.2C1353.32,2319 1349.82,2327.57 1348.75,2337.9L1408.45,2337.9ZM1486.15,2298.9C1487.85,2305.4 1488.95,2311.8 1489.45,2318.2C1495.25,2312 1501.75,2307.2 1509.05,2303.9C1516.35,2300.5 1523.85,2298.9 1531.75,2298.9C1540.48,2298.9 1547.75,2301.13 1553.55,2305.6C1557.05,2308.2 1561.05,2312.9 1565.65,2319.6C1572.65,2312.4 1579.75,2307.2 1586.85,2303.9C1593.95,2300.5 1601.75,2298.9 1609.95,2298.9C1621.05,2298.9 1630.05,2301.9 1637.05,2308C1644.05,2314 1647.55,2322 1647.55,2331.7L1647.55,2378.8L1647.75,2389.3C1647.75,2395.63 1648.12,2400.23 1648.85,2403.1C1649.55,2406 1650.95,2408.5 1653.05,2410.4C1655.72,2412.93 1660.52,2414.83 1667.45,2416.1L1667.45,2418.9L1606.05,2418.9L1606.05,2416.1C1611.58,2415.37 1615.52,2414.33 1617.85,2413C1620.25,2411.6 1622.25,2409.4 1623.75,2406.1C1624.75,2403.97 1625.48,2400.77 1625.95,2396.5C1626.35,2392.17 1626.55,2386 1626.55,2378L1626.55,2351.5C1626.55,2341.23 1626.22,2333.73 1625.55,2329C1624.88,2324.27 1623.65,2320.27 1621.85,2317C1617.45,2309.07 1609.95,2305.1 1599.35,2305.1C1587.95,2305.1 1579.55,2309.4 1574.45,2317.9C1569.92,2325.23 1567.65,2336.6 1567.65,2352L1567.65,2378.8L1567.75,2389.3C1567.75,2395.63 1568.12,2400.27 1568.85,2403.2C1569.65,2406.07 1571.05,2408.47 1573.05,2410.4C1575.65,2412.93 1580.48,2414.83 1587.55,2416.1L1587.55,2418.9L1526.05,2418.9L1526.05,2416.1C1531.65,2415.37 1535.62,2414.33 1537.95,2413C1540.25,2411.6 1542.25,2409.3 1543.85,2406.1C1544.85,2403.97 1545.55,2400.77 1545.95,2396.5C1546.35,2392.1 1546.55,2385.9 1546.55,2377.9L1546.55,2352.2C1546.55,2341.4 1546.25,2333.5 1545.55,2328.4C1544.85,2323.4 1543.55,2319.3 1541.65,2316.1C1539.58,2312.77 1536.72,2310.17 1533.05,2308.3C1529.35,2306.4 1525.15,2305.4 1520.55,2305.4C1515.35,2305.4 1510.45,2306.67 1505.85,2309.2C1501.25,2311.7 1497.55,2315.1 1494.85,2319.3C1492.38,2323.1 1490.62,2327.67 1489.55,2333C1488.48,2338.33 1487.95,2345.2 1487.95,2353.6L1487.95,2379L1488.15,2389.3C1488.15,2395.63 1488.52,2400.23 1489.25,2403.1C1489.98,2406.03 1491.42,2408.47 1493.55,2410.4C1496.15,2412.93 1500.92,2414.83 1507.85,2416.1L1507.85,2418.9L1446.45,2418.9L1446.45,2416.1C1451.95,2415.3 1455.95,2414.3 1458.35,2413C1460.75,2411.6 1462.65,2409.4 1464.15,2406.1C1465.15,2403.97 1465.88,2400.77 1466.35,2396.5C1466.75,2392.17 1466.95,2385.97 1466.95,2377.9L1466.95,2343.7C1466.95,2334.2 1466.65,2327.5 1466.25,2323.7C1465.75,2319.8 1464.75,2316.7 1463.15,2314.3C1461.65,2311.7 1459.65,2309.9 1457.45,2308.7C1455.25,2307.57 1452.05,2306.87 1447.85,2306.6L1447.85,2303.7L1486.15,2298.9ZM1675.35,2304L1715.55,2298.9L1715.55,2378.9L1715.65,2389.4C1715.65,2395.7 1716.05,2400.3 1716.75,2403.2C1717.48,2406.07 1718.92,2408.47 1721.05,2410.4C1723.65,2413 1728.45,2414.9 1735.35,2416.1L1735.35,2419L1673.85,2419L1673.85,2416.1C1679.45,2415.4 1683.45,2414.4 1685.85,2413C1688.25,2411.67 1690.18,2409.4 1691.65,2406.2C1692.75,2404.1 1693.45,2400.9 1693.85,2396.6C1694.25,2392.3 1694.45,2386.1 1694.45,2378L1694.45,2343.9C1694.45,2334.4 1694.25,2327.8 1693.75,2324C1693.35,2320.1 1692.25,2317 1690.75,2314.6C1689.15,2312.1 1687.25,2310.2 1684.95,2309C1682.75,2307.87 1679.55,2307.17 1675.35,2306.9L1675.35,2304ZM1704.45,2248.8C1700.85,2248.8 1697.85,2247.63 1695.45,2245.3C1693.05,2242.97 1691.85,2240.07 1691.85,2236.6C1691.85,2233.13 1693.08,2230.23 1695.55,2227.9C1697.95,2225.5 1700.92,2224.3 1704.45,2224.3C1707.98,2224.3 1710.88,2225.5 1713.35,2227.9C1715.75,2230.23 1716.95,2233.13 1716.95,2236.6C1716.95,2240.07 1715.75,2242.97 1713.35,2245.3C1711.02,2247.63 1708.05,2248.8 1704.45,2248.8ZM1846.75,2392.7L1849.55,2393.6C1846.35,2403.5 1841.35,2410.6 1834.75,2414.9C1828.05,2419.3 1818.85,2421.5 1807.25,2421.5C1788.52,2421.5 1773.85,2415.93 1763.25,2404.8C1752.85,2393.87 1747.68,2380.1 1747.75,2363.5C1747.68,2355.3 1749.12,2347.23 1752.05,2339.3C1754.85,2331.3 1758.85,2324.5 1763.75,2318.9C1769.45,2312.4 1776.35,2307.5 1784.55,2304C1792.75,2300.6 1801.65,2298.9 1811.35,2298.9C1824.85,2298.9 1835.35,2301.9 1842.95,2307.9C1847.55,2311.6 1849.85,2315.6 1849.85,2320.1C1849.85,2323.03 1848.88,2325.5 1846.95,2327.5C1845.02,2329.43 1842.65,2330.4 1839.85,2330.4C1833.85,2330.4 1829.45,2326.1 1826.55,2317.3C1825.22,2313.3 1824.15,2310.57 1823.35,2309.1C1822.65,2307.5 1821.45,2306.3 1820.05,2305.2C1817.18,2303.07 1813.65,2302 1809.45,2302C1804.05,2302 1799.05,2303.53 1794.45,2306.6C1790.35,2309.3 1786.95,2312.6 1784.15,2316.7C1781.35,2320.7 1778.88,2325.77 1776.75,2331.9C1773.55,2341.2 1771.85,2350.4 1771.85,2359.4C1771.85,2367.6 1773.35,2375.67 1776.35,2383.6C1779.25,2391.4 1783.25,2398 1788.35,2403.3C1796.25,2411.6 1805.65,2415.8 1816.25,2415.8C1825.15,2415.8 1832.45,2413 1838.25,2407.2C1841.25,2404.2 1844.05,2399.4 1846.75,2392.7ZM1980.25,2405.5L1982.55,2406.9C1979.22,2416.63 1971.58,2421.5 1959.65,2421.5C1953.05,2421.5 1947.58,2419.9 1943.25,2416.7C1940.35,2414.5 1937.45,2410.8 1934.35,2405.5C1928.15,2411.1 1923.45,2414.7 1920.35,2416.5C1914.28,2419.83 1907.25,2421.5 1899.25,2421.5C1889.05,2421.5 1880.98,2419.03 1875.05,2414.1C1869.05,2409.2 1866.05,2402.6 1866.05,2394.3C1866.05,2386.57 1868.52,2380.13 1873.45,2375C1876.18,2372.07 1879.35,2369.77 1882.95,2368.1C1886.55,2366.37 1891.75,2364.63 1898.55,2362.9C1906.62,2360.83 1912.55,2359.13 1916.35,2357.8C1920.22,2356.33 1923.45,2354.63 1926.05,2352.7C1928.95,2350.6 1931.05,2348.1 1932.15,2345.2C1933.22,2342.4 1933.75,2338.43 1933.75,2333.3C1933.75,2322.5 1931.75,2314.6 1927.65,2309.6C1925.85,2307.33 1923.48,2305.5 1920.55,2304.1C1917.65,2302.7 1914.65,2302 1911.55,2302C1907.75,2302 1904.45,2303 1901.45,2304.9C1898.45,2306.9 1896.35,2309.5 1894.85,2313L1891.35,2321.1C1889.55,2325.43 1886.25,2327.6 1881.45,2327.6C1878.25,2327.6 1875.65,2326.6 1873.55,2324.5C1871.35,2322.4 1870.35,2319.7 1870.35,2316.6C1870.35,2311.9 1873.65,2307.8 1880.35,2304.6C1883.95,2302.87 1888.42,2301.5 1893.75,2300.5C1899.02,2299.43 1904.18,2298.9 1909.25,2298.9C1915.05,2298.9 1921.05,2299.63 1927.25,2301.1C1933.45,2302.57 1938.62,2304.47 1942.75,2306.8C1948.75,2310.2 1952.52,2314.63 1954.05,2320.1C1954.75,2322.9 1955.15,2327.6 1955.15,2334.2L1955.15,2385.6C1955.15,2394.27 1955.52,2400.2 1956.25,2403.4C1957.85,2410 1961.65,2413.2 1967.75,2413.2C1970.55,2413.2 1972.85,2412.7 1974.45,2411.7C1976.05,2410.7 1978.05,2408.6 1980.25,2405.5ZM1934.05,2350.8C1929.05,2355 1923.65,2358.7 1917.65,2361.8C1910.95,2365.4 1906.35,2368.1 1903.75,2370C1901.15,2371.9 1898.85,2374.1 1896.75,2376.7C1892.42,2382.1 1890.25,2388.37 1890.25,2395.5C1890.25,2401.6 1891.85,2406.7 1895.25,2410.7C1898.65,2414.7 1902.85,2416.7 1908.05,2416.7C1912.55,2416.7 1916.75,2415.2 1920.75,2412.4C1924.75,2409.6 1927.75,2405.8 1929.75,2401.1C1932.62,2394.83 1934.05,2385.83 1934.05,2374.1L1934.05,2350.8ZM1984.05,2228.9L2024.15,2223.7L2024.15,2378.7L2024.35,2389.3C2024.35,2395.57 2024.72,2400.17 2025.45,2403.1C2026.18,2406.03 2027.62,2408.47 2029.75,2410.4C2032.35,2412.87 2037.12,2414.77 2044.05,2416.1L2044.05,2418.9L1982.65,2418.9L1982.65,2416.1C1988.25,2415.3 1992.15,2414.3 1994.55,2412.9C1996.95,2411.6 1998.85,2409.3 2000.35,2406.1C2001.35,2403.97 2002.08,2400.73 2002.55,2396.4C2002.95,2392.13 2003.15,2385.93 2003.15,2377.8L2003.15,2269C2003.15,2259.6 2002.85,2252.9 2002.45,2249.1C2001.95,2245.2 2000.95,2242 1999.35,2239.6C1997.85,2237 1995.85,2235.2 1993.65,2234.1C1991.45,2232.9 1988.25,2232.3 1984.05,2232L1984.05,2228.9ZM2061.25,2418.9L2061.25,2379.4L2063.45,2379.4C2066.12,2389.07 2069.35,2396.8 2073.15,2402.6C2080.28,2413.13 2088.62,2418.4 2098.15,2418.4C2103.85,2418.4 2108.95,2416.6 2113.15,2413.1C2117.75,2409.23 2120.08,2403.73 2120.15,2396.6C2120.15,2390.8 2118.45,2385.7 2115.15,2381.3C2113.28,2379.03 2110.95,2376.9 2108.15,2374.9C2105.35,2373 2100.55,2370.2 2093.95,2366.7C2082.28,2360.57 2074.52,2355.4 2070.65,2351.2C2065.12,2345.33 2062.35,2338.5 2062.35,2330.7C2062.35,2322.4 2065.15,2315.2 2070.65,2309.2C2077.05,2302.3 2085.55,2298.9 2096.15,2298.9C2100.88,2298.9 2105.28,2299.73 2109.35,2301.4L2114.05,2303.4C2115.52,2304 2116.82,2304.3 2117.95,2304.3C2119.75,2304.3 2121.42,2303.17 2122.95,2300.9L2125.75,2300.9L2127.25,2331.6L2124.35,2331.6C2123.35,2327.2 2122.28,2323.63 2121.15,2320.9C2119.95,2318.3 2118.35,2315.7 2116.25,2313.2C2113.35,2309.7 2110.05,2306.9 2106.25,2305C2102.45,2303 2098.72,2302 2095.05,2302C2089.85,2302 2085.35,2303.9 2081.75,2307.6C2078.08,2311.33 2076.25,2315.93 2076.25,2321.4C2076.25,2325.9 2077.95,2330 2081.25,2333.7C2084.45,2337.3 2089.55,2340.7 2096.35,2343.7L2111.05,2350.4C2119.75,2354.4 2126.35,2359.3 2130.65,2365.3C2134.95,2371.2 2137.15,2378.2 2137.15,2386.2C2137.15,2395.93 2134.02,2404 2127.75,2410.4C2120.55,2417.8 2111.28,2421.5 2099.95,2421.5C2093.88,2421.5 2087.72,2420.27 2081.45,2417.8C2077.38,2416.2 2074.92,2415.27 2074.05,2415C2073.25,2414.8 2072.15,2414.7 2070.85,2414.7C2067.58,2414.7 2065.12,2416.1 2063.45,2418.9L2061.25,2418.9Z" style="fill:rgb(0,42,69);"/>
        <path d="M1156.62,932.1L1072.51,970.26C955.54,1038.73 874.2,1169.41 874.31,1305.65L1201.03,989.92L1152.13,1723.71L392.07,947.66L1247.76,105L2088.23,967.64L1330.05,1710.36L1276.66,989.96L1610.03,1305.67C1603.89,1152.37 1511.49,1012.93 1371.6,950.54L1325.58,932.16L1765.63,936.55C1768.24,926.28 1763.64,929.22 1760.04,926.39C1741.41,911.76 1707.25,892.33 1685.74,880.88C1582.12,825.74 1473.42,796.42 1356.68,829.79L1623.41,545.26C1472.5,545.34 1307.54,655.43 1255.43,797.48C1252.06,806.68 1245.74,846.91 1243.27,847.65C1233.28,850.62 1237.74,841.78 1236.55,836.77C1197.07,669.85 1028.3,548.42 858.77,545.26L1125.5,829.79C976.67,785.64 839.57,850.04 716.55,927.76L716.49,934.3C717.24,940.59 722.15,932.12 723.18,932.12L1156.62,932.12L1156.62,932.1Z" style="fill:rgb(0,42,69);fill-rule:nonzero;"/>
    </g>
</svg>
